<?xml version="1.0" encoding="utf-8"?>
<!-- Generator: Adobe Illustrator 16.0.0, SVG Export Plug-In . SVG Version: 6.00 Build 0)  -->
<!DOCTYPE svg PUBLIC "-//W3C//DTD SVG 1.1//EN" "http://www.w3.org/Graphics/SVG/1.1/DTD/svg11.dtd">
<svg version="1.1" id="Layer_1" xmlns="http://www.w3.org/2000/svg" xmlns:xlink="http://www.w3.org/1999/xlink" x="0px" y="0px"
	 width="184.77px" height="203.88px" viewBox="0 0 184.77 203.88" enable-background="new 0 0 184.77 203.88" xml:space="preserve">
<g>
	<polygon fill="#303030" points="52.385,77.69 37.51,35.94 37.385,35.94 33.062,22.902 141.99,29.471 147.885,29.69 132.885,78.263 
			"/>
	<polygon fill="#4A4A4A" points="141.416,32.737 147.885,29.69 142.109,23.94 101.885,23.94 96.874,29.357 122.385,41.315 	"/>
	<polygon fill="#525252" points="118.26,29.877 49.26,33.94 44.51,0.69 	"/>
	<polygon fill="#5E5E5E" points="104.385,29.94 35.563,35.574 29.635,4.94 	"/>
	<polygon fill="#A8A8A8" points="72.385,127.863 72.385,161.121 45.062,174.286 93.507,202.693 144.125,175.325 112.385,161.813 
		112.385,129.249 	"/>
	
		<rect x="131.37" y="71.741" transform="matrix(-0.9879 -0.155 0.155 -0.9879 260.5986 187.3633)" fill="#BBBBBB" width="12.471" height="23.557"/>
	<polyline fill="none" stroke="#6B6B6B" stroke-miterlimit="10" points="131.138,88.136 136.48,89.061 137.605,77.542 
		142.109,78.135 	"/>
	
		<rect x="42.682" y="71.741" transform="matrix(0.9879 -0.155 0.155 0.9879 -12.3577 8.5945)" fill="#BBBBBB" width="12.471" height="23.557"/>
	<polyline fill="none" stroke="#6B6B6B" stroke-miterlimit="10" points="55.386,88.136 50.044,89.061 48.918,77.542 44.414,78.135 	
		"/>
	<polygon fill="#CECECE" points="123.193,139.94 61.793,139.94 43.414,29.94 141.99,29.94 	"/>
	<polygon fill="#E8E8E8" points="100.135,96.122 85.291,95.94 88.135,64.523 98.151,64.532 	"/>
	<polyline fill="#767676" points="100.135,96.122 92.572,100.69 85.291,95.94 	"/>
	<circle stroke="#000000" stroke-miterlimit="10" cx="69.82" cy="77.051" r="5.89"/>
	<circle stroke="#000000" stroke-miterlimit="10" cx="115.549" cy="77.051" r="5.889"/>
	<polygon fill="#303030" points="78.384,117.462 92.25,113.608 104.98,117.676 	"/>
	<polygon fill="#525252" points="83.385,70.94 53.885,70.94 53.885,70.94 69.57,60.565 83.385,67.69 	"/>
	<polygon fill="#525252" points="101.385,70.94 131.885,70.94 131.885,70.94 115.699,60.565 101.385,67.69 	"/>
	<polygon fill="#525252" points="92.01,106.649 75.01,108.815 69.82,117.815 	"/>
	<polygon fill="#525252" points="92.713,106.649 109.82,108.815 115.01,117.815 	"/>
	<rect x="52.885" y="74.44" fill="none" stroke="#000000" stroke-miterlimit="10" width="31" height="14"/>
	<rect x="101.885" y="74.44" fill="none" stroke="#000000" stroke-miterlimit="10" width="31" height="14"/>
	<polyline fill="none" stroke="#000000" stroke-miterlimit="10" points="83.885,81.44 92.713,77.052 101.885,81.44 	"/>
	<polygon fill="#515151" points="72.947,160.69 92.885,166.941 112.885,161.813 144.438,175.325 93.507,202.693 45.062,174.286 	"/>
	<polygon fill="#E1E1E1" points="63.039,165.521 72.385,153.107 92.885,166.941 83.885,183.274 	"/>
	<polygon fill="#E1E1E1" points="122.246,165.822 112.385,153.107 92.719,166.941 101.719,183.274 	"/>
	<polygon fill="#797979" points="92.702,29.94 34.76,53.94 20.718,20.44 	"/>
	<polygon fill="#797979" points="104.385,29.94 142.426,47.366 147.885,29.69 	"/>
	<rect x="52.885" y="74.44" opacity="0.4" fill="#F0F0F0" stroke="#000000" stroke-miterlimit="10" width="31" height="14"/>
	<rect x="101.885" y="74.44" opacity="0.4" fill="#F0F0F0" stroke="#000000" stroke-miterlimit="10" width="31" height="14"/>
</g>
</svg>
