<?xml version="1.0" encoding="utf-8"?>
<!-- Generator: Adobe Illustrator 16.0.0, SVG Export Plug-In . SVG Version: 6.00 Build 0)  -->
<!DOCTYPE svg PUBLIC "-//W3C//DTD SVG 1.1//EN" "http://www.w3.org/Graphics/SVG/1.1/DTD/svg11.dtd">
<svg version="1.1" id="Layer_1" xmlns="http://www.w3.org/2000/svg" xmlns:xlink="http://www.w3.org/1999/xlink" x="0px" y="0px"
	 width="163.483px" height="203.94px" viewBox="0 0 163.483 203.94" enable-background="new 0 0 163.483 203.94"
	 xml:space="preserve">
<g>
	<polygon fill="#6E6E6E" points="33.399,174.477 79.899,166.463 132.828,175.625 130.781,45.21 33.399,50.78 	"/>
	<polygon fill="#9D9D9D" points="61.399,129.048 61.399,162.306 34.076,175.471 82.521,203.878 133.139,176.51 101.399,162.998 
		101.399,130.434 	"/>
	<polygon fill="#BEBEBE" points="106.878,165.381 94.149,180.125 68.899,180.125 57.001,164.424 32.336,174.5 82.646,203.94 
		134.816,176.209 	"/>
	<polygon fill="#B8B8B8" points="132.62,24.875 129.149,32.32 132.149,179.875 161.899,160.125 	"/>
	<polygon fill="#B8B8B8" points="33.428,26.875 36.899,34.32 33.899,181.875 4.149,162.125 	"/>
	
		<rect x="120.385" y="72.925" transform="matrix(-0.9879 -0.1551 0.1551 -0.9879 238.5721 188.0196)" fill="#CCCCCC" width="12.471" height="23.557"/>
	<polyline fill="none" stroke="#6F6F6F" stroke-miterlimit="10" points="120.152,89.321 125.495,90.247 126.62,78.728 
		131.124,79.321 	"/>
	
		<rect x="31.696" y="72.925" transform="matrix(0.9879 -0.1551 0.1551 0.9879 -12.6773 6.9074)" fill="#CCCCCC" width="12.471" height="23.558"/>
	<polyline fill="none" stroke="#6F6F6F" stroke-miterlimit="10" points="44.4,89.321 39.058,90.247 37.932,78.728 33.428,79.321 	
		"/>
	
		<rect x="35.899" y="93.625" transform="matrix(0.7071 -0.7071 0.7071 0.7071 -57.1381 56.3065)" fill="#FAFAFA" width="7" height="7"/>
	
		<rect x="121.899" y="93.625" transform="matrix(0.7071 -0.7071 0.7071 0.7071 -31.9483 117.1255)" fill="#FAFAFA" width="7" height="7"/>
	<polygon fill="#E0E0E0" points="113.208,141.125 51.807,141.125 33.428,31.125 132.004,31.125 	"/>
	<polygon fill="#B8B8B8" points="81.649,31.625 81.399,0 131.754,22.999 133.846,31.125 	"/>
	<polygon fill="#F6F6F6" points="87.928,100.125 76.096,100.125 79.841,83.125 83.908,83.125 	"/>
	<polyline fill="#6F6F6F" points="87.928,100.125 81.814,103.352 76.096,100.125 	"/>
	<circle stroke="#000000" stroke-miterlimit="10" cx="58.834" cy="78.237" r="5.89"/>
	<circle stroke="#000000" stroke-miterlimit="10" cx="104.563" cy="78.237" r="5.889"/>
	<polygon fill="#A7A7A7" points="66.913,54.676 45.602,60.794 45.602,60.794 56.639,51.125 66.913,54.676 	"/>
	<polygon fill="#A7A7A7" points="81.774,31.554 81.399,0 33.428,23.688 33.899,31.625 	"/>
	<polygon fill="#6E6E6E" points="81.774,31.625 95.833,23.07 106.649,31.438 	"/>
	<polygon fill="#6E6E6E" points="81.649,31.625 67.589,23.07 56.774,31.438 	"/>
	<polygon fill="#C2C2C2" points="96,22.986 116.982,8 138.566,28.958 163.483,29.375 127.83,56.056 	"/>
	<polygon fill="#DADADA" points="138.739,28.958 163.483,29.365 127.83,56.056 	"/>
	<polygon fill="#C2C2C2" points="67.482,22.986 46.5,8 24.917,28.958 0,29.375 35.653,56.056 	"/>
	<polygon fill="#DADADA" points="24.917,28.958 0,29.365 35.653,56.056 	"/>
	<polygon fill="#A7A7A7" points="97.602,53.676 118.913,59.794 118.913,59.794 107.875,50.125 97.602,53.676 	"/>
	<polyline fill="#FFFFFF" points="69.465,118.306 81.694,122.125 93.468,118.807 	"/>
	<polygon fill="#FFFFFF" points="69.998,118.156 81.694,116.459 95.065,117.959 81.694,121.594 	"/>
	<polygon fill="#A2A2A2" points="95.235,117.826 81.694,126.125 81.694,126.125 68.154,117.531 81.694,122.125 	"/>
	<polyline fill="#6E6E6E" points="94.456,117.6 81.899,116.809 69.217,117.6 65.3,116.041 68.873,118.234 81.883,114.125 
		81.994,114.125 95.064,118.234 98.688,116.357 	"/>
	<polygon fill="#6E6E6E" points="68.493,117.932 69.544,118.414 79.487,116.779 78.107,115.75 	"/>
	<polygon fill="#6E6E6E" points="95.481,117.945 94.209,118.455 83.493,116.779 84.872,115.75 	"/>
</g>
</svg>
