<?xml version="1.0" encoding="utf-8"?>
<!-- Generator: Adobe Illustrator 16.0.0, SVG Export Plug-In . SVG Version: 6.00 Build 0)  -->
<!DOCTYPE svg PUBLIC "-//W3C//DTD SVG 1.1//EN" "http://www.w3.org/Graphics/SVG/1.1/DTD/svg11.dtd">
<svg version="1.1" id="Layer_1" xmlns="http://www.w3.org/2000/svg" xmlns:xlink="http://www.w3.org/1999/xlink" x="0px" y="0px"
	 width="184.77px" height="203.88px" viewBox="0 0 184.77 203.88" enable-background="new 0 0 184.77 203.88" xml:space="preserve">
<g>
	
		<rect x="128.299" y="132.44" transform="matrix(-0.8456 -0.5339 0.5339 -0.8456 175.9192 330.7667)" fill="#9B0835" width="15" height="15"/>
	
		<rect x="42.885" y="131.44" transform="matrix(0.8456 -0.5339 0.5339 0.8456 -66.3933 48.3539)" fill="#9B0835" width="15" height="15"/>
	<polygon fill="#840326" points="46.312,46.274 54.177,97.406 123.385,96.44 144.421,42.19 95.885,20.098 48.683,30.127 	"/>
	<polygon fill="#C61C44" points="91.322,35.505 93.369,4.69 142.99,25.813 145.593,35.44 	"/>
	<polygon fill="#B71745" points="92.76,34.369 93.369,4.69 44.414,26.502 44.885,34.44 	"/>
	<polygon fill="#AD706A" points="72.385,124.863 72.385,158.121 45.062,171.286 93.507,199.693 144.125,172.325 112.385,158.813 
		112.385,126.249 	"/>
	
		<rect x="135.683" y="64.74" transform="matrix(-0.9845 0.1754 -0.1754 -0.9845 295.058 126.9587)" fill="#C48279" width="12.472" height="23.558"/>
	<polyline fill="none" stroke="#7F4943" stroke-miterlimit="10" points="137.308,82.993 142.66,82.125 139.97,70.869 
		144.421,69.961 	"/>
	
		<rect x="37.682" y="64.74" transform="matrix(0.9845 0.1754 -0.1754 0.9845 14.102 -6.5168)" fill="#C48279" width="12.472" height="23.558"/>
	<polyline fill="none" stroke="#7F4943" stroke-miterlimit="10" points="48.528,82.993 43.176,82.125 45.866,70.869 41.415,69.961 	
		"/>
	<polygon fill="#D69488" points="147.302,137.94 38.385,137.94 59.061,27.94 127.701,27.94 	"/>
	<polygon fill="#EFB7B3" points="102.155,94.94 82.572,94.94 88.054,68.411 85.417,57.94 99.002,57.94 96.657,68.304 	"/>
	<polyline fill="#7A4B42" points="102.155,94.94 92.13,97.69 82.572,94.94 	"/>
	<circle stroke="#000000" stroke-miterlimit="10" cx="68.819" cy="74.051" r="5.89"/>
	<circle stroke="#000000" stroke-miterlimit="10" cx="115.549" cy="74.051" r="5.889"/>
	<polygon fill="#C61C44" points="82.302,51.665 57.601,61.624 57.601,61.624 62.461,55.275 79.053,46.018 	"/>
	<polygon fill="#C61C44" points="104.385,60.529 131.01,59.875 131.01,59.875 124.029,55.973 105.127,54.057 	"/>
	<polygon fill="#FFFFFF" points="70.114,116.892 91.857,107.857 113.593,116.892 91.635,124.441 	"/>
	<polygon fill="#C61C44" points="69.635,116.691 91.685,125.941 114.08,116.691 91.685,121.691 	"/>
	<polygon fill="#840326" points="68.072,117.502 92.26,105.107 115.197,117.502 92.26,110.274 	"/>
	<polygon fill="#DB90A6" points="66.385,169.44 92.857,180.44 117.385,169.44 123.883,183.436 93.632,199.693 61.773,180.963 	"/>
	<polygon fill="#843A4F" points="72.682,158.409 67.741,184.472 45.312,171.286 	"/>
	<polygon fill="#843A4F" points="112.979,159.292 117.422,186.877 144.635,172.381 	"/>
	<polygon fill="#840326" points="92.843,27.94 78.575,18.885 67.51,27.961 	"/>
	<polygon fill="#DB4262" points="78.468,18.801 57.486,3.815 29.885,30.315 43.918,56.44 	"/>
	<polygon fill="#840326" points="92.843,27.94 106.944,18.885 118.119,27.961 	"/>
	<polygon fill="#DB4262" points="107.051,18.801 128.033,3.815 155.635,30.315 141.602,56.44 	"/>
	<path fill="#B71E42" stroke="#000000" stroke-miterlimit="10" d="M92.635,6.19"/>
	<polygon fill="#F44E77" points="29.885,30.315 44.414,40.065 66.688,31.634 43.918,57.293 	"/>
	<polygon fill="#F44E77" points="155.3,30.938 140.951,39.065 117.913,30.634 141.602,56.44 	"/>
	
		<rect x="38.885" y="149.44" transform="matrix(0.8227 -0.5685 0.5685 0.8227 -80.9963 54.1985)" fill="#C61C44" width="15" height="15"/>
	<polygon fill="#C61C44" points="44.322,166.584 33.453,175.305 48.293,180.565 	"/>
	
		<rect x="132.299" y="150.44" transform="matrix(-0.8227 -0.5685 0.5685 -0.8227 165.0187 367.3503)" fill="#C61C44" width="15" height="15"/>
	<polygon fill="#C61C44" points="141.861,167.584 152.73,176.305 137.891,181.565 	"/>
	
		<rect x="39.718" y="84.058" transform="matrix(0.9831 0.1831 -0.1831 0.9831 16.8378 -6.206)" fill="#444343" width="4.602" height="8"/>
	
		<rect x="141.718" y="84.058" transform="matrix(-0.9831 0.1832 -0.1832 -0.9831 301.7295 148.248)" fill="#444343" width="4.601" height="8"/>
</g>
</svg>
