<?xml version="1.0" encoding="utf-8"?>
<!-- Generator: Adobe Illustrator 16.0.0, SVG Export Plug-In . SVG Version: 6.00 Build 0)  -->
<!DOCTYPE svg PUBLIC "-//W3C//DTD SVG 1.1//EN" "http://www.w3.org/Graphics/SVG/1.1/DTD/svg11.dtd">
<svg version="1.1" id="Layer_1" xmlns="http://www.w3.org/2000/svg" xmlns:xlink="http://www.w3.org/1999/xlink" x="0px" y="0px"
	 width="184.766px" height="203.878px" viewBox="0 0 184.766 203.878" enable-background="new 0 0 184.766 203.878"
	 xml:space="preserve">
<defs>
	<filter id="Adobe_OpacityMaskFilter" filterUnits="userSpaceOnUse" x="0" y="0" width="184.766" height="203.878">
		<feFlood  style="flood-color:white;flood-opacity:1" result="back"/>
		<feBlend  in="SourceGraphic" in2="back" mode="normal"/>
	</filter>
</defs>
<mask maskUnits="userSpaceOnUse" x="0" y="0" width="184.766" height="203.878" id="SVGID_1_">
	<g filter="url(#Adobe_OpacityMaskFilter)">
	</g>
</mask>
<g mask="url(#SVGID_1_)">
	<polygon fill="#D3834C" points="72.083,129.048 72.083,162.306 44.76,175.471 93.205,203.878 143.823,176.51 112.083,162.998 
		112.083,130.434 	"/>
	<polygon fill="#00664B" points="35.083,111.727 92.486,97.307 155.342,111.727 152.721,45.21 35.083,48.076 	"/>
	
		<rect x="131.069" y="72.925" transform="matrix(-0.9879 -0.1551 0.1551 -0.9879 259.811 189.6766)" fill="#E0915C" width="12.471" height="23.557"/>
	<polygon fill="#93603C" points="136.624,90.831 130.751,89.814 130.921,88.829 135.733,89.662 136.856,78.164 141.873,78.825 
		141.742,79.816 137.751,79.291 	"/>
	<polygon fill="#00B77E" points="143.079,24.655 141.808,129.972 184.766,91.633 	"/>
	<polygon fill="#00B77E" points="92.083,32.69 92.083,0 152.013,23.484 151.716,48.076 	"/>
	
		<rect x="42.38" y="72.925" transform="matrix(0.9879 -0.1551 0.1551 0.9879 -12.548 8.5644)" fill="#E0915C" width="12.471" height="23.558"/>
	<polygon fill="#93603C" points="49.297,90.831 48.169,79.291 44.178,79.816 44.047,78.825 49.063,78.164 50.188,89.662 
		54.999,88.829 55.17,89.814 	"/>
	<polygon fill="#00664B" points="158.61,62.012 128.083,75.133 128.083,40.36 	"/>
	<polygon fill="#F4B990" points="123.892,142.125 62.491,142.125 44.112,32.125 142.688,32.125 	"/>
	<g>
		<circle cx="69.518" cy="78.237" r="5.89"/>
		<path d="M69.518,84.626c-3.523,0-6.39-2.866-6.39-6.39c0-3.523,2.866-6.389,6.39-6.389s6.39,2.866,6.39,6.389
			C75.908,81.76,73.042,84.626,69.518,84.626z M69.518,72.848c-2.972,0-5.39,2.417-5.39,5.389s2.418,5.39,5.39,5.39
			s5.39-2.418,5.39-5.39S72.49,72.848,69.518,72.848z"/>
	</g>
	<g>
		<circle cx="115.248" cy="78.237" r="5.889"/>
		<path d="M115.247,84.626c-3.522,0-6.389-2.866-6.389-6.39c0-3.523,2.866-6.389,6.389-6.389c3.523,0,6.39,2.866,6.39,6.389
			C121.637,81.76,118.771,84.626,115.247,84.626z M115.247,72.848c-2.972,0-5.389,2.417-5.389,5.389s2.417,5.39,5.389,5.39
			s5.39-2.418,5.39-5.39S118.219,72.848,115.247,72.848z"/>
	</g>
	
		<rect x="56.238" y="57.682" transform="matrix(0.9612 -0.2759 0.2759 0.9612 -13.6854 20.8708)" fill="#00B77E" width="22.172" height="2.772"/>
	
		<rect x="107.51" y="57.682" transform="matrix(-0.9355 -0.3534 0.3534 -0.9355 208.6616 156.239)" fill="#00B77E" width="22.172" height="2.771"/>
	<polyline fill="#00664B" points="105.14,121.6 92.114,126.781 79.901,121.6 75.984,120.041 79.557,122.156 92.44,118.125 
		92.679,118.125 105.748,122.156 109.372,120.318 	"/>
	<polygon fill="#009B76" points="163.286,21.999 158.61,62.012 92.083,32.125 92.239,32.125 	"/>
	<polygon fill="#00A06A" points="92.083,32.125 92.083,0 43.42,23.27 37.294,59.067 	"/>
	<polygon fill="#00B77E" points="43.42,23.27 45.152,128.354 0,91.633 	"/>
	<polygon fill="#6EBF0F" points="61.44,47.439 56.357,49.651 50.796,34.806 54.211,33.32 	"/>
	<polygon fill="#6EBF0F" points="71.26,43.172 66.22,45.478 60.285,30.521 63.671,28.972 	"/>
	<polygon fill="#6EBF0F" points="115.37,164.397 93.4,177.5 69.865,163.375 44.76,175.471 93.205,203.878 144.136,176.51 	"/>
	<polyline fill="#93603C" points="98.808,108.125 92.744,111.727 86.786,108.125 	"/>
	<polygon fill="#FFDEC7" points="98.808,108.125 86.786,108.125 89.363,68.125 96.446,68.125 	"/>
	<polygon fill="#00664B" points="78.466,121.133 80.511,121.858 83.083,122 83.083,123.125 80.396,122.547 78.286,121.297 	"/>
	<polygon fill="#00664B" points="106.903,121.133 104.712,121.77 102.083,122 102.083,123.125 104.872,122.547 107.032,121.297 	"/>
	<polygon fill="#6EBF0F" points="79.286,122.055 92.007,129.125 92.224,129.125 106.518,121.77 92.298,124.242 	"/>
</g>
</svg>
