<?xml version="1.0" encoding="utf-8"?>
<!-- Generator: Adobe Illustrator 16.0.0, SVG Export Plug-In . SVG Version: 6.00 Build 0)  -->
<!DOCTYPE svg PUBLIC "-//W3C//DTD SVG 1.1//EN" "http://www.w3.org/Graphics/SVG/1.1/DTD/svg11.dtd">
<svg version="1.1" id="Layer_1" xmlns="http://www.w3.org/2000/svg" xmlns:xlink="http://www.w3.org/1999/xlink" x="0px" y="0px"
	 width="184.77px" height="203.88px" viewBox="0 0 184.77 203.88" enable-background="new 0 0 184.77 203.88" xml:space="preserve">
<g>
	<polygon fill="#0054A0" points="148.396,24.063 135.624,12.73 127.539,12.98 125.852,28.251 125.852,29.23 128.227,37.331 	"/>
	<polygon fill="#0054A0" points="57.926,31.744 37.852,24.063 57.67,16.396 75.603,15.993 62.055,34.73 	"/>
	<polygon fill="#0067B5" points="58.686,28.23 126.352,28.23 132.435,3.897 75.603,15.993 	"/>
	<polygon fill="#00487F" points="49.404,78.573 37.852,24.063 58.686,28.23 63.239,50.535 63.396,51.318 	"/>
	<polygon fill="#00487F" points="136.844,78.573 148.396,24.063 127.852,28.23 123.009,50.535 122.852,51.318 	"/>
	<polygon fill="#CE903C" points="71.852,125.153 71.852,158.411 44.528,171.576 92.974,199.983 143.592,172.615 111.852,159.103 
		111.852,126.539 	"/>
	<polygon fill="#89C0CC" points="66.852,168.23 122.852,168.23 122.852,183.955 92.974,199.983 64.626,183.064 	"/>
	
		<rect x="135.149" y="65.03" transform="matrix(-0.9845 0.1754 -0.1754 -0.9845 294.0508 127.6283)" fill="#E2A357" width="12.472" height="23.557"/>
	<polyline fill="none" stroke="#8E480E" stroke-miterlimit="10" points="136.774,83.283 142.127,82.416 139.437,71.159 
		143.888,70.251 	"/>
	
		<rect x="37.148" y="65.03" transform="matrix(0.9845 0.1754 -0.1754 0.9845 14.1446 -6.4188)" fill="#E2A357" width="12.472" height="23.557"/>
	<polyline fill="none" stroke="#8E480E" stroke-miterlimit="10" points="47.995,83.283 42.643,82.416 45.333,71.159 40.882,70.251 	
		"/>
	<polygon fill="#EFBB70" points="147.602,138.23 37.852,138.23 58.686,28.23 127.852,28.23 	"/>
	<polygon fill="#FFDDAF" points="99.685,104.23 85.634,104.23 88.128,71.236 83.789,58.23 100.664,58.23 97.391,71.104 	"/>
	<polyline fill="#895727" points="99.685,104.23 92.597,107.832 85.634,104.23 	"/>
	<circle stroke="#000000" stroke-miterlimit="10" cx="69.286" cy="74.342" r="5.89"/>
	<circle stroke="#000000" stroke-miterlimit="10" cx="115.016" cy="74.342" r="5.889"/>
	<polygon fill="#0054A0" points="83.789,53.105 57.67,59.319 57.67,59.319 79.898,44.842 	"/>
	<polygon fill="#0054A0" points="101.67,53.105 127.789,59.319 127.789,59.319 105.561,44.842 	"/>
	<polygon fill="#00487F" points="75.603,125.153 92.227,114.98 109.127,125.153 92.227,119.396 	"/>
	<polygon fill="#016DCE" points="71.852,158.411 79.671,192.182 44.438,171.564 	"/>
	<polygon fill="#016DCE" points="111.852,159.103 107.754,192.088 143.904,172.615 	"/>
	<polygon fill="#087EC6" points="58.686,28.23 114.729,38.667 141.727,15.167 	"/>
</g>
</svg>
