<?xml version="1.0" encoding="utf-8"?>
<!-- Generator: Adobe Illustrator 16.0.0, SVG Export Plug-In . SVG Version: 6.00 Build 0)  -->
<!DOCTYPE svg PUBLIC "-//W3C//DTD SVG 1.1//EN" "http://www.w3.org/Graphics/SVG/1.1/DTD/svg11.dtd">
<svg version="1.1" id="Layer_1" xmlns="http://www.w3.org/2000/svg" xmlns:xlink="http://www.w3.org/1999/xlink" x="0px" y="0px"
	 width="184.77px" height="203.88px" viewBox="0 0 184.77 203.88" enable-background="new 0 0 184.77 203.88" xml:space="preserve">
<g>
	<polygon fill="#6C6C6C" points="142.438,94.94 159.344,50.107 53.385,49.94 23.01,49.524 40.385,94.94 	"/>
	<polygon fill="#909090" points="159.344,50.107 134.385,8.565 91.635,12.877 89.385,27.553 89.385,47.94 89.572,72.94 	"/>
	<polygon fill="#838383" points="23.01,49.524 47.427,9.106 92.135,12.849 92.42,26.66 91.76,46.94 92.072,71.94 	"/>
	<polygon fill="#747474" points="70.385,123.863 70.385,157.121 43.062,170.286 91.507,198.693 142.125,171.325 110.385,157.813 
		110.385,125.249 	"/>
	
		<rect x="133.683" y="63.74" transform="matrix(-0.9845 0.1754 -0.1754 -0.9845 290.9136 125.325)" fill="#A7A7A7" width="12.472" height="23.558"/>
	<polyline fill="none" stroke="#535353" stroke-miterlimit="10" points="135.308,81.993 140.66,81.125 137.97,69.869 
		142.421,68.961 	"/>
	
		<rect x="35.682" y="63.74" transform="matrix(0.9845 0.1754 -0.1754 0.9845 13.8956 -6.1815)" fill="#A7A7A7" width="12.472" height="23.558"/>
	<polyline fill="none" stroke="#535353" stroke-miterlimit="10" points="46.528,81.993 41.176,81.125 43.866,69.869 39.415,68.961 	
		"/>
	<polygon fill="#C6C6C6" points="146.135,136.94 36.385,136.94 57.219,26.94 126.385,26.94 	"/>
	<polygon fill="#E1E1E1" points="101.843,93.94 80.76,93.94 86.661,67.411 82.322,56.94 99.197,56.94 95.924,67.304 	"/>
	<polyline fill="#5E5E5E" points="101.843,93.94 91.13,96.69 80.76,93.94 	"/>
	<circle stroke="#000000" stroke-miterlimit="10" cx="67.819" cy="73.051" r="5.89"/>
	<circle stroke="#000000" stroke-miterlimit="10" cx="113.549" cy="73.051" r="5.889"/>
	<polygon fill="#909090" points="100.203,51.815 126.322,58.03 126.322,58.03 118.322,50.19 104.094,43.551 	"/>
	<polygon fill="#FFFFFF" points="68.385,108.94 113.385,108.94 91.26,125.69 	"/>
	<polygon fill="#6C6C6C" points="67.819,108.857 91.26,107.502 113.549,108.857 91.301,109.752 	"/>
	<polygon fill="#909090" points="66.166,107.721 91.23,126.986 114.885,107.721 91.23,120.78 	"/>
	<polygon fill="#909090" points="82.322,51.815 56.203,58.03 56.203,58.03 64.203,50.19 78.432,43.551 	"/>
	<polygon fill="#949494" points="92.239,26.94 76.728,5.243 14.51,33.315 51.119,58.647 	"/>
	<polygon fill="#949494" points="92.239,26.94 107.917,5.243 170.135,33.315 132.232,59.011 	"/>
	<polygon fill="#C2C2C2" points="92.239,26.94 51.802,45.357 14.51,33.315 51.119,58.647 	"/>
	<polygon fill="#C2C2C2" points="92.239,26.94 131.288,45.357 170.135,33.315 132.232,59.011 	"/>
	<polygon fill="#828282" points="70.635,146.191 110.385,146.44 110.385,157.813 142.188,171.325 91.507,198.693 43.062,170.286 
		70.604,156.565 	"/>
	<polygon fill="#656565" points="70.385,146.112 110.385,146.44 110.385,157.813 70.369,156.815 	"/>
</g>
</svg>
